<?xml version="1.0" encoding="utf-8"?>
<svg xmlns="http://www.w3.org/2000/svg" width="1080" height="1080" viewBox="86.823 383.294 906.354 317.647">
  <path fill="#add7df" d="M162 433h2l-.2 3.215c-3.795 53.214-3.795 53.214 9.887 104.035 6.364 12.397 14.638 20.494 26.27 28.015q4.348 2.805 8.704 5.598c22.442 14.462 42.513 31.872 55.171 55.692C270.138 642.064 278.627 659.777 278 674c-11.019 5.362-26.567 4.43-38.536 3.73-25.146-1.938-48.375-10.409-69.234-24.464C155.038 642.61 141.991 629.639 132 614l-2.145-3.324c-12.971-21.355-18.59-46.629-19.167-71.426.387-23.18 6.069-45.016 17.312-65.25l1.785-3.305c7.58-13.571 19.131-28.972 32.215-37.695"/>
  <path fill="#606774" d="m189 415 .304 2.316c3.491 26.317 7.71 51.323 24.16 72.997C226.69 507.046 244.727 515.492 264 523.5c19.9 8.268 36.244 17.585 52 32.5l2.645 2.45c14.353 13.737 24.838 30.437 33.793 48.05l1 1.959c2.02 4.083 3.873 8.007 4.562 12.541-2.296 5.41-5.763 9.247-9.937 13.313l-1.73 1.698c-9.838 9.49-20.865 16.852-32.53 23.889a234 234 0 0 0-4.795 3.026c-3.55 2.26-6.78 4.307-10.945 5.136L295 668c-1.609-1.238-1.609-1.238-3-3-.764-1.983-.764-1.983-1.324-4.254l-.666-2.562-.697-2.746c-6.717-24.787-19.141-47.332-37.125-65.688-6.191-6.123-12.811-11.12-20.188-15.75a7289 7289 0 0 1-8.264-5.219 788 788 0 0 0-5.695-3.558C203.658 556.22 192.065 546.052 184 531c-8.825-18.192-11.15-38.524-11.168-58.488l-.01-3.823q-.008-3.975-.007-7.949c0-3.387-.014-6.774-.031-10.16-.014-3.252-.013-6.504-.014-9.756l-.022-3.671.01-3.42-.005-2.997c.266-2.944.968-5.081 2.247-7.736 1.586-1.73 1.586-1.73 3.375-3.187.585-.49 1.17-.978 1.773-1.481C183.202 416.135 185.19 415 189 415M522.438 460.75l3.933-.078C530 461 530 461 532.88 462.309 535 464 535 464 536.5 467.312c.5 3.688.5 3.688-.562 7.063C534 477 534 477 531.75 478.188 529 478 529 478 527.438 476.965l-1.688-1.34c-2.647-2.03-4.768-3.19-8.062-3.812-2.669-.131-4.506.122-7.028 1.019-8.167 4.381-14.482 11.396-20.66 18.168l-1.602 1.72a167 167 0 0 0-4.398 5.03l-2.562 2.984L480 504c.699 3.411 1.591 5.853 3 9l1.57 3.674c1.91 4.442 3.887 8.853 5.868 13.264l2.173 4.857q2.695 6.013 5.404 12.02 1.344 2.982 2.682 5.967c17.395 41.943 17.395 41.943 45.866 76.28 3.968 2.238 6.925 2.982 11.437 2.938 2.386-.203 4.641-.558 7-1l1 4c-10.117 5.536-20.44 8-32 8-7.743-.709-14.704-3.266-21.246-7.43-10.477-7.59-17.498-18.437-23.754-29.57l-1.26-2.229C475.67 582.144 466.003 559.054 457 536l-2 2c-.312 2.742-.312 2.742-.271 5.991l-.031 3.814-.003 2.045q-.008 3.173-.04 6.345c-.056 6.014-.087 12.029-.111 18.043-.016 3.679-.047 7.357-.085 11.036a510 510 0 0 0-.018 4.194c-.001 12.313-.001 12.313-1.854 16.83C451 609 451 609 449.168 610.852c-4.429 2.345-9.212 2.893-14.168 3.148-3.338-.468-6.073-1.326-9-3-2.285-2.228-3.622-3.81-4.585-6.842-.473-2.461-.546-4.743-.553-7.25-.005-1.028-.01-2.056-.017-3.115l-.003-3.399-.015-3.593q-.02-4.871-.032-9.743c-.01-3.4-.029-6.799-.047-10.198-.062-11.576-.116-23.153-.15-34.73q-.027-9.594-.087-19.188-.034-5.077-.04-10.153c-.004-3.771-.027-7.542-.054-11.313l.009-3.405-.034-3.106-.01-2.702c-.223-2.315-.223-2.315-1.66-4.073L417 477c-7.656 0-14.27 2.434-21 6-3.886 2.727-6.996 5.776-10 9.438-1.46 3.743-1.324 6.545-1 10.562l2 3c3.374.5 3.374.5 7 0a264 264 0 0 0 5-3c3.063-.437 3.063-.437 6 0 2.313 1.438 2.313 1.438 4 4 .84 3.035 1.137 5.855 1 9-1.257 3.701-2.547 5.571-5.375 8.25-3.25 2.167-5.768 3.55-9.695 3.973-3.984.155-6.856-.198-10.68-1.473-3.95-2.127-7.013-3.777-9.445-7.656-2.417-4.8-3.442-9.117-3.184-14.489.989-6.8 3.484-12.752 7.442-18.355 6.235-7.429 14.956-11.737 23.875-15.184 9.18-3.196 17.685-4.347 27.375-4.441l2.821-.042c5.967.04 10.442.888 15.866 3.417 2.438 2.375 2.438 2.375 4 5 1.32 4.733 1.223 9.58 1.316 14.457l.063 2.736q.097 4.31.183 8.62l.131 5.857q.16 7.165.307 14.33l1.159-1.616c19.246-26.835 19.246-26.835 28.833-37.165 2.06-2.222 2.06-2.222 3.977-4.75 5.79-7.037 13.651-12.044 22.031-15.469 3.76-1.264 7.495-1.203 11.438-1.25"/>
  <path fill="#606774" d="M604.703 512.934c4.077 1.893 7.703 4.383 11.297 7.066l1.434-1.207c4.896-3.923 9.35-6.641 15.566-7.793 7.11-.715 13.337-.495 19.902 2.441 6.024 4.476 9.58 10.63 12.723 17.309l1.256 2.648C675.288 551.833 681.158 571.626 687 591c2.002-2.512 3.458-4.727 4.5-7.766l.746-2.17c5.649-17.325 9.485-35.452 6.074-53.7a108 108 0 0 0-1.652-5.29c-.878-2.727-.898-5.234-.668-8.074 3.306-1.935 5.798-2.976 9.625-3.437C709 511 709 511 711.18 512.65 713 515 713 515 713.502 517.8l-.006 3.232.01 3.616c-.023 1.272-.046 2.543-.068 3.853l-.043 3.956c-.506 26.816-6.972 53.142-20.707 76.356-9.508 15.443-21.515 30.379-37.395 39.504-9.474 4.844-19.449 8.695-30.211 8.68-4.141-.263-7.61-.824-11.52-2.246-2.94-2.008-4.716-3.697-6.562-6.75-.5-2.937-.5-2.937 0-6 1.75-3.312 1.75-3.312 4-6l1.938-1.187L615 635c2.974 2.517 5.04 5.06 7.188 8.313L625 646c4.385 1.059 8.412.387 12.742-.668 6.96-2.257 12.54-5.831 18.258-10.332l2.367-1.832c2.987-2.41 2.987-2.41 5.633-5.168.877-2.163.877-2.163 1-5-.558-2.985-1.472-5.837-2.395-8.727l-.796-2.582c-.86-2.776-1.74-5.546-2.621-8.316l-1.806-5.743c-5.88-18.582-12.258-36.911-20.132-54.757l-1.032-2.351c-2.874-6.286-6.299-12.605-11.218-17.524-2.688-.27-5.291-.087-8 0l.688 3.5c.35 3.068.326 5.534-.563 8.5-1.862 4.152-4.474 6.905-7.95 9.8-5.773 3.999-11.989 7.207-18.183 10.5-5.382 2.872-10.524 6.045-15.656 9.337L573 566h-2c-.553 4.862.29 8.367 2.063 12.938 2.502 5.592 5.24 10.082 9.937 14.062 4.177 3.013 8.073 4.711 13.18 5.477 5.736.256 10.243-.295 15.445-2.79 2.345-1.297 4.145-2.45 6.012-4.375L619 590c2.188.313 2.188.313 4 1-.4 2.571-1.005 4.006-2.574 6.113-6.886 7.166-14.583 11.399-23.832 14.762-7.723 2.075-16.322 2.005-24.102.402-7.835-2.245-14.145-5.242-20.18-10.715L550 599l-2.5-2.625c-4.704-5.773-7.858-13.442-9.219-20.742-1.26-11.803-.456-22.534 3.903-33.653 3.784-8.351 8.998-15.716 16.46-21.185 13.649-9.122 30.03-13.429 46.06-7.861m-28.453 11.129c-4.257 5.557-5.764 11.062-6.91 17.87-.593 5.352-.494 10.692-.34 16.067 4.899-1.73 9.227-4.316 13.688-6.937l2.337-1.342 2.237-1.31 2.03-1.184c2.002-1.286 2.002-1.286 3.708-4.227.673-4.923.346-9.729-1.25-14.437-1.51-3.463-1.51-3.463-3.5-5.563-2.373-1.176-2.373-1.176-5.687-1.5-3.65.22-3.65.22-6.313 2.563M864.969 513.621c7.522 3.422 13.35 8.088 18.468 14.567 5.08 7.474 7.344 15.929 8.563 24.812.84 12.417-.579 23.522-5.25 35.098-3.555 7.18-8.557 12.85-14.75 17.902-6.476 4.112-13.302 6.688-20.98 7.336-8.913.193-16.89-.27-25.02-4.336-7.023-4.177-12.878-8.88-17-16-7-13.355-7.759-25.352-7.195-40.202.6-8.593 3.771-16.252 8.441-23.45 5.078-6.797 10.574-11.964 18.375-15.418 11.57-4.522 24.642-4.467 36.348-.309M843 521.938c-3.295 2.265-4.968 4.215-6.89 7.677-3.36 7.216-3.512 15.616-3.798 23.447l-.118 3.027c-.93 19.568-.93 19.568 3.908 38.184 1.688 2.869 3.535 5.328 5.773 7.79 2.262 1.168 2.262 1.168 5.563.937 3.632-.78 3.632-.78 6.312-3.125 4.02-5.137 5.373-9.642 6.438-16 .93-7.823 1.025-15.627 1.062-23.5l.028-3.68c-.032-9.436-.108-19.614-4.153-28.32-1.898-3.291-1.898-3.291-4.062-5.312-3.778-1.946-5.938-2.415-10.063-1.125M948.688 512.688c3.39 1.304 5.498 2.46 8.375 4.75L959 520l1.813 2.25c1.44 3.334 1.736 5.981 1.597 9.594C962 534 962 534 959.938 537c-2.938 2-2.938 2-6.438 3-3.5 0-3.5 0-6.375-1.375C945 537 945 537 944 536c-.312-2.812-.312-2.812 0-6 1.875-2.375 1.875-2.375 4-4h2c-1.301-2.502-1.301-2.502-3-5-3.576-1.192-6.24-1.26-10-1-2.855 1.245-2.855 1.245-5 3-1.282 2.564-1.448 4.891-1.405 7.735.789 4.413 3.692 7.796 6.405 11.265 2.493 2.657 5.152 5.082 7.875 7.5q2.135 1.955 4.262 3.918l2.032 1.873C957.704 561.393 962.756 567.59 966 576c1.277 5.386 1.623 10.276.387 15.68-1.576 5.012-3.474 8.898-7.074 12.758-5.029 4.586-10.721 7.085-17.313 8.562-9.603.672-18.466.937-27.309-3.367C908.884 606.11 903.73 601.865 899 597l2-4c3.412.612 5.396 1.905 8.125 4 3.32 2.262 5.943 3.527 9.938 4.063 4.117.173 7.544-.363 11.308-2.06 1.834-1.027 1.834-1.027 3.629-3.19 1.026-2.885 1.67-5.438 1.531-8.516-1.184-5.122-4.332-9.22-7.531-13.297-2.368-2.501-4.824-4.884-7.305-7.273-7.212-7.297-14.198-15.289-17.18-25.27-1.088-5.185-.979-9.557.673-14.644 1.571-3.772 3.693-6.14 6.812-8.813l2.188-2.125c10.12-6.747 24.155-6.628 35.5-3.187M753.375 512.125c3.147 2.248 5.667 4.542 7.625 7.875.93 2.675 1.47 5.204 2 8l1.941-2.23c4.654-5.25 9.028-10.078 15.059-13.77 3.712-1.237 7.139-1.29 11-1 2.313.625 2.313.625 4 2 1.814 2.656 2.868 4.9 3.254 8.113.136 5.24-.57 9.925-2.254 14.887l-3 1-2.187-2.937c-1.69-1.987-2.676-2.998-5.063-4.125-5.257.119-9.75 1.892-14.262 4.53-3.059 2.01-5.896 3.94-8.488 6.532-.298 2.839-.298 2.839-.24 6.206l-.01 3.955.006 2.12c.006 2.19-.003 4.38-.017 6.57-.037 6.228-.056 12.456-.044 18.683.005 3.81-.013 7.617-.046 11.425q-.012 2.175.004 4.35c.014 2.033-.005 4.065-.025 6.097l-.002 3.5C762 607 762 607 759.648 609.85 757 612 757 612 754 613c-5.716.397-11.149.606-16.625-1.187-2.78-2.122-3.864-3.655-5.375-6.813a69 69 0 0 1-.417-7.88l-.026-2.357c-.025-2.56-.029-5.12-.034-7.681q-.021-2.672-.047-5.345c-.042-4.683-.067-9.366-.087-14.049a6520 6520 0 0 0-.159-22.518q-.026-3.938-.041-7.874l-.031-4.805-.003-2.22c.027-3.761.027-3.761-1.155-7.271h-10l1-4c4.555-3.711 10.074-6.615 15.863-7.754 5.707-.657 11.017-.953 16.512.879"/>
  <path fill="#add7df" d="M262.773 405.23c5.425 3.039 9.87 6.495 13.227 11.77 2.878 5.172 4.27 10.016 4.5 15.938-.24 6.202-1.688 11.533-4.5 17.062-3.097 4.848-7.002 7.982-11.875 10.957-6.233 3.059-11.79 3.474-18.652 3.352-4.862-.432-8.404-1.646-12.473-4.309-5.692-4.088-9.904-8.695-13-15-2.052-5.374-2.576-10.319-2-16 .965-5.57 2.78-10.136 6.063-14.75 3.946-4.684 8.358-7.758 13.937-10.25 8.293-2.986 16.738-2.334 24.773 1.23"/>
  <path fill="#606774" d="M743 471q4.406-.08 8.813-.125l2.525-.05 2.432-.02 2.237-.032C761 471 761 471 764 473c1.283 3.85 1.066 6.947 1 11h-4l-1-9-4-1-1 11h-3l-1-10-4-1-1 11h-3zM689 471q4.406-.118 8.813-.187l2.525-.077 2.432-.029 2.237-.048c1.993.341 1.993.341 3.74 1.69L710 474c.293 2.7.293 2.7.188 5.688l-.083 3.011L710 485h-3l-1-10h-4l-1 10h-3l-1-11-4 1-1 10h-3zM842 471h3l1 9 4 1 1-9h4c.082 1.895.14 3.791.188 5.688l.105 3.199C855 484 855 484 853.551 486.832 852 489 852 489 851 490q-3.5.062-7 0v-3l6-1-2.875-.812L844 484c-2-3-2-3-2.195-5.48l.07-2.707.055-2.731zM934 471c6.559-.431 6.559-.431 10 0 2.625 2.188 2.625 2.188 4 5 .5 2.563.5 2.563 0 5-1.625 2.313-1.625 2.313-4 4-3.25.25-3.25.25-6 0l-2 6-2-1zm5 3-2 2c.32 2.603.32 2.603 1 5 2.397.68 2.397.68 5 1l2-2c-.32-2.603-.32-2.603-1-5-2.397-.68-2.397-.68-5-1M721.492 470.758c2.504-.007 5.008.11 7.508.242v13c-3.687.922-6.25 1.39-10 1-2.375-1.625-2.375-1.625-4-4-.5-3-.5-3 0-6 1.747-3.018 3.012-3.904 6.492-4.242M720 474l-2 2c.32 2.603.32 2.603 1 5l5 1c1.198-2.329 1.198-2.329 2-5l-2-3zM600 471c2.445-.426 2.445-.426 5.125-.312l2.695.074L610 471l1 1c.072 2.02.084 4.042.063 6.063l-.028 3.347L611 484c-3.782 1.022-7.066 1.358-11 1-1.937-1.625-1.937-1.625-3-4-.375-3-.375-3 0-6 1.203-2.168 1.203-2.168 3-4m1 3-1 1c-.167 3-.167 3 0 6l1 1c2.5.167 2.5.167 5 0l1-1c.167-3 .167-3 0-6l-1-1c-2.5-.167-2.5-.167-5 0M910 470.5c3 .5 3 .5 5.375 2.25L917 475v4l-10 1 1 1q3.5.062 7 0v3l-1 1c-3.312.313-3.312.313-7 0-2.437-1.625-2.437-1.625-4-4-.5-3-.5-3 0-6 2.12-3.098 3.285-3.88 7-4.5m-3 3.5v2h7l-1-2zM823 470.5c3 .5 3 .5 5.375 2.25L830 475v4l-10 1 1 1q3.5.062 7 0v3l-1 1c-3.312.313-3.312.313-7 0-2.437-1.625-2.437-1.625-4-4-.5-3-.5-3 0-6 2.12-3.098 3.285-3.88 7-4.5m-3 3.5v2h7l-1-2zM777 470.5c3 .5 3 .5 5.375 2.25L784 475v4l-10 1 1 1q3.5.062 7 0v3l-1 1c-3.312.313-3.312.313-7 0-2.437-1.625-2.437-1.625-4-4-.5-3-.5-3 0-6 2.12-3.098 3.285-3.88 7-4.5m-3 3.5v2h7l-1-2zM664.938 470.75c3.062.25 3.062.25 4.875 1.438C671 474 671 474 671.875 476.375 672 479 672 479 670.625 481.75 669 484 669 484 668 485c-2.812.25-2.812.25-6 0-2.312-1.187-2.312-1.187-4-3-.937-2.375-.937-2.375-1-5 1.313-2.75 1.313-2.75 3-5 2-1 2-1 4.938-1.25M663 474l-2 1v6q2.988.57 6 1l1-1c.04-2 .043-4 0-6a76 76 0 0 0-5-1M569 465h15v3h-5v16h-4v-16h-5zM958.938 470.563c3.062.437 3.062.437 5.437 2.062C966 475 966 475 966.5 478c-.5 3-.5 3-2.125 5.375C962 485 962 485 959 485.563l-3-.563c-2.437-2.125-2.437-2.125-4-5 .063-3.125.063-3.125 1-6 1.744-2.753 2.683-2.953 5.938-3.437M957 474l-1 1c-.04 2-.043 4 0 6 2.397.68 2.397.68 5 1l2-2c-.32-2.603-.32-2.603-1-5a88 88 0 0 0-5-1M635 471c3-.187 3-.187 6 0l2 1v3h-6l2.938 1.188L643 478c.875 2.688.875 2.688 1 5l-3 2c-3.187.125-3.187.125-6 0l-2-4h7l-2.937-1.187L634 478c-1-2.562-1-2.562-1-5zM616 471l4.313-.187 2.425-.106c2.262.293 2.262.293 4.043 1.45C628 474 628 474 628.293 476.698l-.106 2.988-.082 3.012L628 485h-3l-1-10-4-1-1 11h-3zM789 471c6.738-.39 6.738-.39 9 0 1.781 1.688 1.781 1.688 3 4 .293 2.578.293 2.578.188 5.25l-.083 2.703L801 485h-3l-1-11-4 1-1 10h-3zM886 471h3l1 10 4 1 1-11 3 1c.459 7.955.459 7.955-1.125 11.563C895 485 895 485 892 485.438c-3-.438-3-.438-4.676-1.61C886 482 886 482 885.707 479.301l.106-2.988.082-3.012zM879 471l2 1v3h-8l-1 6h9v3c-2 1-2 1-4.875 1.25-3.125-.25-3.125-.25-5.437-1.437C869 482 869 482 868.063 479.625 868 477 868 477 869.313 474.25c2.831-3.776 5.159-3.439 9.687-3.25M808 465l3 1v5h2l-1 3a119 119 0 0 0-.062 5.688l.027 3.011L812 485l-4-1c-.2-1.03-.2-1.03-.402-2.082l-.535-2.73-.528-2.708c-.512-2.594-.512-2.594-1.535-5.48h2l-.062-2.437L807 466zM651 465l5 1-1 2h-2v2h2v3h-2v12h-3v-12l-3-1 1-2h2zM586 471h9v3l-1.937.5L591 476c-.688 2.697-.82 5.202-1 8h-4zM921 471h9l-1 3-2 1.188-2 1.812c-.664 2.698-.817 5.208-1 8h-3zM676 471h9l-1 3-2 1.188-2 1.812c-.664 2.698-.817 5.208-1 8h-3z"/>
</svg>