<svg width="906.354" height="317.647" xmlns="http://www.w3.org/2000/svg">

 <g>
  <title>Layer 1</title>
  <path id="svg_1" d="m162,433l2,0l-0.2,3.215c-3.795,53.214 -3.795,53.214 9.887,104.035c6.364,12.397 14.638,20.494 26.27,28.015q4.348,2.805 8.704,5.598c22.442,14.462 42.513,31.872 55.171,55.692c6.306,12.509 14.795,30.222 14.168,44.445c-11.019,5.362 -26.567,4.43 -38.536,3.73c-25.146,-1.938 -48.375,-10.409 -69.234,-24.464c-15.192,-10.656 -28.239,-23.627 -38.23,-39.266l-2.145,-3.324c-12.971,-21.355 -18.59,-46.629 -19.167,-71.426c0.387,-23.18 6.069,-45.016 17.312,-65.25l1.785,-3.305c7.58,-13.571 19.131,-28.972 32.215,-37.695" fill="#add7df"/>
  <path id="svg_2" d="m189,415l0.304,2.316c3.491,26.317 7.71,51.323 24.16,72.997c13.226,16.733 31.263,25.179 50.536,33.187c19.9,8.268 36.244,17.585 52,32.5l2.645,2.45c14.353,13.737 24.838,30.437 33.793,48.05l1,1.959c2.02,4.083 3.873,8.007 4.562,12.541c-2.296,5.41 -5.763,9.247 -9.937,13.313l-1.73,1.698c-9.838,9.49 -20.865,16.852 -32.53,23.889a234,234 0 0 0 -4.795,3.026c-3.55,2.26 -6.78,4.307 -10.945,5.136l-3.063,-0.062c-1.609,-1.238 -1.609,-1.238 -3,-3c-0.764,-1.983 -0.764,-1.983 -1.324,-4.254l-0.666,-2.562l-0.697,-2.746c-6.717,-24.787 -19.141,-47.332 -37.125,-65.688c-6.191,-6.123 -12.811,-11.12 -20.188,-15.75a7289,7289 0 0 1 -8.264,-5.219a788,788 0 0 0 -5.695,-3.558c-14.383,-9.003 -25.976,-19.171 -34.041,-34.223c-8.825,-18.192 -11.15,-38.524 -11.168,-58.488l-0.01,-3.823q-0.008,-3.975 -0.007,-7.949c0,-3.387 -0.014,-6.774 -0.031,-10.16c-0.014,-3.252 -0.013,-6.504 -0.014,-9.756l-0.022,-3.671l0.01,-3.42l-0.005,-2.997c0.266,-2.944 0.968,-5.081 2.247,-7.736c1.586,-1.73 1.586,-1.73 3.375,-3.187c0.585,-0.49 1.17,-0.978 1.773,-1.481c3.054,-2.197 5.042,-3.332 8.852,-3.332m333.438,45.75l3.933,-0.078c3.629,0.328 3.629,0.328 6.509,1.637c2.12,1.691 2.12,1.691 3.62,5.003c0.5,3.688 0.5,3.688 -0.562,7.063c-1.938,2.625 -1.938,2.625 -4.188,3.813c-2.75,-0.188 -2.75,-0.188 -4.312,-1.223l-1.688,-1.34c-2.647,-2.03 -4.768,-3.19 -8.062,-3.812c-2.669,-0.131 -4.506,0.122 -7.028,1.019c-8.167,4.381 -14.482,11.396 -20.66,18.168l-1.602,1.72a167,167 0 0 0 -4.398,5.03l-2.562,2.984l-1.438,3.266c0.699,3.411 1.591,5.853 3,9l1.57,3.674c1.91,4.442 3.887,8.853 5.868,13.264l2.173,4.857q2.695,6.013 5.404,12.02q1.344,2.982 2.682,5.967c17.395,41.943 17.395,41.943 45.866,76.28c3.968,2.238 6.925,2.982 11.437,2.938c2.386,-0.203 4.641,-0.558 7,-1l1,4c-10.117,5.536 -20.44,8 -32,8c-7.743,-0.709 -14.704,-3.266 -21.246,-7.43c-10.477,-7.59 -17.498,-18.437 -23.754,-29.57l-1.26,-2.229c-12.07,-21.627 -21.737,-44.717 -30.74,-67.771l-2,2c-0.312,2.742 -0.312,2.742 -0.271,5.991l-0.031,3.814l-0.003,2.045q-0.008,3.173 -0.04,6.345c-0.056,6.014 -0.087,12.029 -0.111,18.043c-0.016,3.679 -0.047,7.357 -0.085,11.036a510,510 0 0 0 -0.018,4.194c-0.001,12.313 -0.001,12.313 -1.854,16.83c-1.587,2.702 -1.587,2.702 -3.419,4.554c-4.429,2.345 -9.212,2.893 -14.168,3.148c-3.338,-0.468 -6.073,-1.326 -9,-3c-2.285,-2.228 -3.622,-3.81 -4.585,-6.842c-0.473,-2.461 -0.546,-4.743 -0.553,-7.25c-0.005,-1.028 -0.01,-2.056 -0.017,-3.115l-0.003,-3.399l-0.015,-3.593q-0.02,-4.871 -0.032,-9.743c-0.01,-3.4 -0.029,-6.799 -0.047,-10.198c-0.062,-11.576 -0.116,-23.153 -0.15,-34.73q-0.027,-9.594 -0.087,-19.188q-0.034,-5.077 -0.04,-10.153c-0.004,-3.771 -0.027,-7.542 -0.054,-11.313l0.009,-3.405l-0.034,-3.106l-0.01,-2.702c-0.223,-2.315 -0.223,-2.315 -1.66,-4.073l-1.722,-1.19c-7.656,0 -14.27,2.434 -21,6c-3.886,2.727 -6.996,5.776 -10,9.438c-1.46,3.743 -1.324,6.545 -1,10.562l2,3c3.374,0.5 3.374,0.5 7,0a264,264 0 0 0 5,-3c3.063,-0.437 3.063,-0.437 6,0c2.313,1.438 2.313,1.438 4,4c0.84,3.035 1.137,5.855 1,9c-1.257,3.701 -2.547,5.571 -5.375,8.25c-3.25,2.167 -5.768,3.55 -9.695,3.973c-3.984,0.155 -6.856,-0.198 -10.68,-1.473c-3.95,-2.127 -7.013,-3.777 -9.445,-7.656c-2.417,-4.8 -3.442,-9.117 -3.184,-14.489c0.989,-6.8 3.484,-12.752 7.442,-18.355c6.235,-7.429 14.956,-11.737 23.875,-15.184c9.18,-3.196 17.685,-4.347 27.375,-4.441l2.821,-0.042c5.967,0.04 10.442,0.888 15.866,3.417c2.438,2.375 2.438,2.375 4,5c1.32,4.733 1.223,9.58 1.316,14.457l0.063,2.736q0.097,4.31 0.183,8.62l0.131,5.857q0.16,7.165 0.307,14.33l1.159,-1.616c19.246,-26.835 19.246,-26.835 28.833,-37.165c2.06,-2.222 2.06,-2.222 3.977,-4.75c5.79,-7.037 13.651,-12.044 22.031,-15.469c3.76,-1.264 7.495,-1.203 11.438,-1.25" fill="#606774"/>
  <path id="svg_3" d="m604.703,512.934c4.077,1.893 7.703,4.383 11.297,7.066l1.434,-1.207c4.896,-3.923 9.35,-6.641 15.566,-7.793c7.11,-0.715 13.337,-0.495 19.902,2.441c6.024,4.476 9.58,10.63 12.723,17.309l1.256,2.648c8.407,18.435 14.277,38.228 20.119,57.602c2.002,-2.512 3.458,-4.727 4.5,-7.766l0.746,-2.17c5.649,-17.325 9.485,-35.452 6.074,-53.7a108,108 0 0 0 -1.652,-5.29c-0.878,-2.727 -0.898,-5.234 -0.668,-8.074c3.306,-1.935 5.798,-2.976 9.625,-3.437c3.375,0.437 3.375,0.437 5.555,2.087c1.82,2.35 1.82,2.35 2.322,5.15l-0.006,3.232l0.01,3.616c-0.023,1.272 -0.046,2.543 -0.068,3.853l-0.043,3.956c-0.506,26.816 -6.972,53.142 -20.707,76.356c-9.508,15.443 -21.515,30.379 -37.395,39.504c-9.474,4.844 -19.449,8.695 -30.211,8.68c-4.141,-0.263 -7.61,-0.824 -11.52,-2.246c-2.94,-2.008 -4.716,-3.697 -6.562,-6.75c-0.5,-2.937 -0.5,-2.937 0,-6c1.75,-3.312 1.75,-3.312 4,-6l1.938,-1.187l2.062,0.186c2.974,2.517 5.04,5.06 7.188,8.313l2.812,2.687c4.385,1.059 8.412,0.387 12.742,-0.668c6.96,-2.257 12.54,-5.831 18.258,-10.332l2.367,-1.832c2.987,-2.41 2.987,-2.41 5.633,-5.168c0.877,-2.163 0.877,-2.163 1,-5c-0.558,-2.985 -1.472,-5.837 -2.395,-8.727l-0.796,-2.582c-0.86,-2.776 -1.74,-5.546 -2.621,-8.316l-1.806,-5.743c-5.88,-18.582 -12.258,-36.911 -20.132,-54.757l-1.032,-2.351c-2.874,-6.286 -6.299,-12.605 -11.218,-17.524c-2.688,-0.27 -5.291,-0.087 -8,0l0.688,3.5c0.35,3.068 0.326,5.534 -0.563,8.5c-1.862,4.152 -4.474,6.905 -7.95,9.8c-5.773,3.999 -11.989,7.207 -18.183,10.5c-5.382,2.872 -10.524,6.045 -15.656,9.337l-2.336,1.363l-2,0c-0.553,4.862 0.29,8.367 2.063,12.938c2.502,5.592 5.24,10.082 9.937,14.062c4.177,3.013 8.073,4.711 13.18,5.477c5.736,0.256 10.243,-0.295 15.445,-2.79c2.345,-1.297 4.145,-2.45 6.012,-4.375l1.363,-1.312c2.188,0.313 2.188,0.313 4,1c-0.4,2.571 -1.005,4.006 -2.574,6.113c-6.886,7.166 -14.583,11.399 -23.832,14.762c-7.723,2.075 -16.322,2.005 -24.102,0.402c-7.835,-2.245 -14.145,-5.242 -20.18,-10.715l-2.312,-2.562l-2.5,-2.625c-4.704,-5.773 -7.858,-13.442 -9.219,-20.742c-1.26,-11.803 -0.456,-22.534 3.903,-33.653c3.784,-8.351 8.998,-15.716 16.46,-21.185c13.649,-9.122 30.03,-13.429 46.06,-7.861m-28.453,11.129c-4.257,5.557 -5.764,11.062 -6.91,17.87c-0.593,5.352 -0.494,10.692 -0.34,16.067c4.899,-1.73 9.227,-4.316 13.688,-6.937l2.337,-1.342l2.237,-1.31l2.03,-1.184c2.002,-1.286 2.002,-1.286 3.708,-4.227c0.673,-4.923 0.346,-9.729 -1.25,-14.437c-1.51,-3.463 -1.51,-3.463 -3.5,-5.563c-2.373,-1.176 -2.373,-1.176 -5.687,-1.5c-3.65,0.22 -3.65,0.22 -6.313,2.563m288.718,-10.442c7.522,3.422 13.35,8.088 18.468,14.567c5.08,7.474 7.344,15.929 8.563,24.812c0.84,12.417 -0.579,23.522 -5.25,35.098c-3.555,7.18 -8.557,12.85 -14.75,17.902c-6.476,4.112 -13.302,6.688 -20.98,7.336c-8.913,0.193 -16.89,-0.27 -25.02,-4.336c-7.023,-4.177 -12.878,-8.88 -17,-16c-7,-13.355 -7.759,-25.352 -7.195,-40.202c0.6,-8.593 3.771,-16.252 8.441,-23.45c5.078,-6.797 10.574,-11.964 18.375,-15.418c11.57,-4.522 24.642,-4.467 36.348,-0.309m-21.969,8.317c-3.295,2.265 -4.968,4.215 -6.89,7.677c-3.36,7.216 -3.512,15.616 -3.798,23.447l-0.118,3.027c-0.93,19.568 -0.93,19.568 3.908,38.184c1.688,2.869 3.535,5.328 5.773,7.79c2.262,1.168 2.262,1.168 5.563,0.937c3.632,-0.78 3.632,-0.78 6.312,-3.125c4.02,-5.137 5.373,-9.642 6.438,-16c0.93,-7.823 1.025,-15.627 1.062,-23.5l0.028,-3.68c-0.032,-9.436 -0.108,-19.614 -4.153,-28.32c-1.898,-3.291 -1.898,-3.291 -4.062,-5.312c-3.778,-1.946 -5.938,-2.415 -10.063,-1.125m105.688,-9.25c3.39,1.304 5.498,2.46 8.375,4.75l1.937,2.562l1.813,2.25c1.44,3.334 1.736,5.981 1.597,9.594c-0.41,2.156 -0.41,2.156 -2.472,5.156c-2.938,2 -2.938,2 -6.438,3c-3.5,0 -3.5,0 -6.375,-1.375c-2.125,-1.625 -2.125,-1.625 -3.125,-2.625c-0.312,-2.812 -0.312,-2.812 0,-6c1.875,-2.375 1.875,-2.375 4,-4l2,0c-1.301,-2.502 -1.301,-2.502 -3,-5c-3.576,-1.192 -6.24,-1.26 -10,-1c-2.855,1.245 -2.855,1.245 -5,3c-1.282,2.564 -1.448,4.891 -1.405,7.735c0.789,4.413 3.692,7.796 6.405,11.265c2.493,2.657 5.152,5.082 7.875,7.5q2.135,1.955 4.262,3.918l2.032,1.873c6.535,6.102 11.587,12.299 14.831,20.709c1.277,5.386 1.623,10.276 0.387,15.68c-1.576,5.012 -3.474,8.898 -7.074,12.758c-5.029,4.586 -10.721,7.085 -17.313,8.562c-9.603,0.672 -18.466,0.937 -27.309,-3.367c-5.807,-3.523 -10.961,-7.768 -15.691,-12.633l2,-4c3.412,0.612 5.396,1.905 8.125,4c3.32,2.262 5.943,3.527 9.938,4.063c4.117,0.173 7.544,-0.363 11.308,-2.06c1.834,-1.027 1.834,-1.027 3.629,-3.19c1.026,-2.885 1.67,-5.438 1.531,-8.516c-1.184,-5.122 -4.332,-9.22 -7.531,-13.297c-2.368,-2.501 -4.824,-4.884 -7.305,-7.273c-7.212,-7.297 -14.198,-15.289 -17.18,-25.27c-1.088,-5.185 -0.979,-9.557 0.673,-14.644c1.571,-3.772 3.693,-6.14 6.812,-8.813l2.188,-2.125c10.12,-6.747 24.155,-6.628 35.5,-3.187m-195.313,-0.563c3.147,2.248 5.667,4.542 7.625,7.875c0.93,2.675 1.47,5.204 2,8l1.941,-2.23c4.654,-5.25 9.028,-10.078 15.059,-13.77c3.712,-1.237 7.139,-1.29 11,-1c2.313,0.625 2.313,0.625 4,2c1.814,2.656 2.868,4.9 3.254,8.113c0.136,5.24 -0.57,9.925 -2.254,14.887l-3,1l-2.187,-2.937c-1.69,-1.987 -2.676,-2.998 -5.063,-4.125c-5.257,0.119 -9.75,1.892 -14.262,4.53c-3.059,2.01 -5.896,3.94 -8.488,6.532c-0.298,2.839 -0.298,2.839 -0.24,6.206l-0.01,3.955l0.006,2.12c0.006,2.19 -0.003,4.38 -0.017,6.57c-0.037,6.228 -0.056,12.456 -0.044,18.683c0.005,3.81 -0.013,7.617 -0.046,11.425q-0.012,2.175 0.004,4.35c0.014,2.033 -0.005,4.065 -0.025,6.097l-0.002,3.5c-0.626,3.094 -0.626,3.094 -2.978,5.944c-2.648,2.15 -2.648,2.15 -5.648,3.15c-5.716,0.397 -11.149,0.606 -16.625,-1.187c-2.78,-2.122 -3.864,-3.655 -5.375,-6.813a69,69 0 0 1 -0.417,-7.88l-0.026,-2.357c-0.025,-2.56 -0.029,-5.12 -0.034,-7.681q-0.021,-2.672 -0.047,-5.345c-0.042,-4.683 -0.067,-9.366 -0.087,-14.049a6520,6520 0 0 0 -0.159,-22.518q-0.026,-3.938 -0.041,-7.874l-0.031,-4.805l-0.003,-2.22c0.027,-3.761 0.027,-3.761 -1.155,-7.271l-10,0l1,-4c4.555,-3.711 10.074,-6.615 15.863,-7.754c5.707,-0.657 11.017,-0.953 16.512,0.879" fill="#606774"/>
  <path id="svg_4" d="m262.773,405.23c5.425,3.039 9.87,6.495 13.227,11.77c2.878,5.172 4.27,10.016 4.5,15.938c-0.24,6.202 -1.688,11.533 -4.5,17.062c-3.097,4.848 -7.002,7.982 -11.875,10.957c-6.233,3.059 -11.79,3.474 -18.652,3.352c-4.862,-0.432 -8.404,-1.646 -12.473,-4.309c-5.692,-4.088 -9.904,-8.695 -13,-15c-2.052,-5.374 -2.576,-10.319 -2,-16c0.965,-5.57 2.78,-10.136 6.063,-14.75c3.946,-4.684 8.358,-7.758 13.937,-10.25c8.293,-2.986 16.738,-2.334 24.773,1.23" fill="#add7df"/>
  <path id="svg_5" d="m743,471q4.406,-0.08 8.813,-0.125l2.525,-0.05l2.432,-0.02l2.237,-0.032c1.993,0.227 1.993,0.227 4.993,2.227c1.283,3.85 1.066,6.947 1,11l-4,0l-1,-9l-4,-1l-1,11l-3,0l-1,-10l-4,-1l-1,11l-3,0l0,-14zm-54,0q4.406,-0.118 8.813,-0.187l2.525,-0.077l2.432,-0.029l2.237,-0.048c1.993,0.341 1.993,0.341 3.74,1.69l1.253,1.651c0.293,2.7 0.293,2.7 0.188,5.688l-0.083,3.011l-0.105,2.301l-3,0l-1,-10l-4,0l-1,10l-3,0l-1,-11l-4,1l-1,10l-3,0l0,-14zm153,0l3,0l1,9l4,1l1,-9l4,0c0.082,1.895 0.14,3.791 0.188,5.688l0.105,3.199c-0.293,3.113 -0.293,3.113 -1.742,5.945c-1.551,2.168 -1.551,2.168 -2.551,3.168q-3.5,0.062 -7,0l0,-3l6,-1l-2.875,-0.812l-3.125,-1.188c-2,-3 -2,-3 -2.195,-5.48l0.07,-2.707l0.055,-2.731l0.07,-2.082zm92,0c6.559,-0.431 6.559,-0.431 10,0c2.625,2.188 2.625,2.188 4,5c0.5,2.563 0.5,2.563 0,5c-1.625,2.313 -1.625,2.313 -4,4c-3.25,0.25 -3.25,0.25 -6,0l-2,6l-2,-1l0,-19zm5,3l-2,2c0.32,2.603 0.32,2.603 1,5c2.397,0.68 2.397,0.68 5,1l2,-2c-0.32,-2.603 -0.32,-2.603 -1,-5c-2.397,-0.68 -2.397,-0.68 -5,-1m-217.508,-3.242c2.504,-0.007 5.008,0.11 7.508,0.242l0,13c-3.687,0.922 -6.25,1.39 -10,1c-2.375,-1.625 -2.375,-1.625 -4,-4c-0.5,-3 -0.5,-3 0,-6c1.747,-3.018 3.012,-3.904 6.492,-4.242m-1.492,3.242l-2,2c0.32,2.603 0.32,2.603 1,5l5,1c1.198,-2.329 1.198,-2.329 2,-5l-2,-3l-4,0zm-120,-3c2.445,-0.426 2.445,-0.426 5.125,-0.312l2.695,0.074l2.18,0.238l1,1c0.072,2.02 0.084,4.042 0.063,6.063l-0.028,3.347l-0.035,2.59c-3.782,1.022 -7.066,1.358 -11,1c-1.937,-1.625 -1.937,-1.625 -3,-4c-0.375,-3 -0.375,-3 0,-6c1.203,-2.168 1.203,-2.168 3,-4m1,3l-1,1c-0.167,3 -0.167,3 0,6l1,1c2.5,0.167 2.5,0.167 5,0l1,-1c0.167,-3 0.167,-3 0,-6l-1,-1c-2.5,-0.167 -2.5,-0.167 -5,0m309,-3.5c3,0.5 3,0.5 5.375,2.25l1.625,2.25l0,4l-10,1l1,1q3.5,0.062 7,0l0,3l-1,1c-3.312,0.313 -3.312,0.313 -7,0c-2.437,-1.625 -2.437,-1.625 -4,-4c-0.5,-3 -0.5,-3 0,-6c2.12,-3.098 3.285,-3.88 7,-4.5m-3,3.5l0,2l7,0l-1,-2l-6,0zm-84,-3.5c3,0.5 3,0.5 5.375,2.25l1.625,2.25l0,4l-10,1l1,1q3.5,0.062 7,0l0,3l-1,1c-3.312,0.313 -3.312,0.313 -7,0c-2.437,-1.625 -2.437,-1.625 -4,-4c-0.5,-3 -0.5,-3 0,-6c2.12,-3.098 3.285,-3.88 7,-4.5m-3,3.5l0,2l7,0l-1,-2l-6,0zm-43,-3.5c3,0.5 3,0.5 5.375,2.25l1.625,2.25l0,4l-10,1l1,1q3.5,0.062 7,0l0,3l-1,1c-3.312,0.313 -3.312,0.313 -7,0c-2.437,-1.625 -2.437,-1.625 -4,-4c-0.5,-3 -0.5,-3 0,-6c2.12,-3.098 3.285,-3.88 7,-4.5m-3,3.5l0,2l7,0l-1,-2l-6,0zm-109.062,-3.25c3.062,0.25 3.062,0.25 4.875,1.438c1.187,1.812 1.187,1.812 2.062,4.187c0.125,2.625 0.125,2.625 -1.25,5.375c-1.625,2.25 -1.625,2.25 -2.625,3.25c-2.812,0.25 -2.812,0.25 -6,0c-2.312,-1.187 -2.312,-1.187 -4,-3c-0.937,-2.375 -0.937,-2.375 -1,-5c1.313,-2.75 1.313,-2.75 3,-5c2,-1 2,-1 4.938,-1.25m-1.938,3.25l-2,1l0,6q2.988,0.57 6,1l1,-1c0.04,-2 0.043,-4 0,-6a76,76 0 0 0 -5,-1m-94,-9l15,0l0,3l-5,0l0,16l-4,0l0,-16l-5,0l-1,-3zm389.938,5.563c3.062,0.437 3.062,0.437 5.437,2.062c1.625,2.375 1.625,2.375 2.125,5.375c-0.5,3 -0.5,3 -2.125,5.375c-2.375,1.625 -2.375,1.625 -5.375,2.188l-3,-0.563c-2.437,-2.125 -2.437,-2.125 -4,-5c0.063,-3.125 0.063,-3.125 1,-6c1.744,-2.753 2.683,-2.953 5.938,-3.437m-1.938,3.437l-1,1c-0.04,2 -0.043,4 0,6c2.397,0.68 2.397,0.68 5,1l2,-2c-0.32,-2.603 -0.32,-2.603 -1,-5a88,88 0 0 0 -5,-1m-322,-3c3,-0.187 3,-0.187 6,0l2,1l0,3l-6,0l2.938,1.188l3.062,1.812c0.875,2.688 0.875,2.688 1,5l-3,2c-3.187,0.125 -3.187,0.125 -6,0l-2,-4l7,0l-2.937,-1.187l-3.063,-1.813c-1,-2.562 -1,-2.562 -1,-5l2,-2zm-19,0l4.313,-0.187l2.425,-0.106c2.262,0.293 2.262,0.293 4.043,1.45c1.219,1.843 1.219,1.843 1.512,4.541l-0.106,2.988l-0.082,3.012l-0.105,2.302l-3,0l-1,-10l-4,-1l-1,11l-3,0l0,-14zm173,0c6.738,-0.39 6.738,-0.39 9,0c1.781,1.688 1.781,1.688 3,4c0.293,2.578 0.293,2.578 0.188,5.25l-0.083,2.703l-0.105,2.047l-3,0l-1,-11l-4,1l-1,10l-3,0l0,-14zm97,0l3,0l1,10l4,1l1,-11l3,1c0.459,7.955 0.459,7.955 -1.125,11.563c-1.875,1.437 -1.875,1.437 -4.875,1.875c-3,-0.438 -3,-0.438 -4.676,-1.61c-1.324,-1.828 -1.324,-1.828 -1.617,-4.527l0.106,-2.988l0.082,-3.012l0.105,-2.301zm-7,0l2,1l0,3l-8,0l-1,6l9,0l0,3c-2,1 -2,1 -4.875,1.25c-3.125,-0.25 -3.125,-0.25 -5.437,-1.437c-1.688,-1.813 -1.688,-1.813 -2.625,-4.188c-0.063,-2.625 -0.063,-2.625 1.25,-5.375c2.831,-3.776 5.159,-3.439 9.687,-3.25m-71,-6l3,1l0,5l2,0l-1,3a119,119 0 0 0 -0.062,5.688l0.027,3.011l0.035,2.301l-4,-1c-0.2,-1.03 -0.2,-1.03 -0.402,-2.082l-0.535,-2.73l-0.528,-2.708c-0.512,-2.594 -0.512,-2.594 -1.535,-5.48l2,0l-0.062,-2.437l0.062,-2.563l1,-1zm-157,0l5,1l-1,2l-2,0l0,2l2,0l0,3l-2,0l0,12l-3,0l0,-12l-3,-1l1,-2l2,0l1,-5zm-65,6l9,0l0,3l-1.937,0.5l-2.063,1.5c-0.688,2.697 -0.82,5.202 -1,8l-4,0l0,-13zm335,0l9,0l-1,3l-2,1.188l-2,1.812c-0.664,2.698 -0.817,5.208 -1,8l-3,0l0,-14zm-245,0l9,0l-1,3l-2,1.188l-2,1.812c-0.664,2.698 -0.817,5.208 -1,8l-3,0l0,-14z" fill="#606774"/>
  <path stroke="null" d="m75.25517,50.63342l2,0l-0.2,3.215c-3.795,53.214 -3.795,53.214 9.887,104.035c6.364,12.397 14.638,20.494 26.27,28.015q4.348,2.805 8.704,5.598c22.442,14.462 42.513,31.872 55.171,55.692c6.306,12.509 14.795,30.222 14.168,44.445c-11.019,5.362 -26.567,4.43 -38.536,3.73c-25.146,-1.938 -48.375,-10.409 -69.234,-24.464c-15.192,-10.656 -28.239,-23.627 -38.23,-39.266l-2.145,-3.324c-12.971,-21.355 -18.59,-46.629 -19.167,-71.426c0.387,-23.18 6.069,-45.016 17.312,-65.25l1.785,-3.305c7.58,-13.571 19.131,-28.972 32.215,-37.695" fill="#ffffff"/>
  <path stroke="null" d="m102.25517,32.63342l0.304,2.316c3.491,26.317 7.71,51.323 24.16,72.997c13.226,16.733 31.263,25.179 50.536,33.187c19.9,8.268 36.244,17.585 52,32.5l2.645,2.45c14.353,13.737 24.838,30.437 33.793,48.05l1,1.959c2.02,4.083 3.873,8.007 4.562,12.541c-2.296,5.41 -5.763,9.247 -9.937,13.313l-1.73,1.698c-9.838,9.49 -20.865,16.852 -32.53,23.889a234,234 0 0 0 -4.795,3.026c-3.55,2.26 -6.78,4.307 -10.945,5.136l-3.063,-0.062c-1.609,-1.238 -1.609,-1.238 -3,-3c-0.764,-1.983 -0.764,-1.983 -1.324,-4.254l-0.666,-2.562l-0.697,-2.746c-6.717,-24.787 -19.141,-47.332 -37.125,-65.688c-6.191,-6.123 -12.811,-11.12 -20.188,-15.75a7289,7289 0 0 1 -8.264,-5.219a788,788 0 0 0 -5.695,-3.558c-14.383,-9.003 -25.976,-19.171 -34.041,-34.223c-8.825,-18.192 -11.15,-38.524 -11.168,-58.488l-0.01,-3.823q-0.008,-3.975 -0.007,-7.949c0,-3.387 -0.014,-6.774 -0.031,-10.16c-0.014,-3.252 -0.013,-6.504 -0.014,-9.756l-0.022,-3.671l0.01,-3.42l-0.005,-2.997c0.266,-2.944 0.968,-5.081 2.247,-7.736c1.586,-1.73 1.586,-1.73 3.375,-3.187c0.585,-0.49 1.17,-0.978 1.773,-1.481c3.054,-2.197 5.042,-3.332 8.852,-3.332m333.438,45.75l3.933,-0.078c3.629,0.328 3.629,0.328 6.509,1.637c2.12,1.691 2.12,1.691 3.62,5.003c0.5,3.688 0.5,3.688 -0.562,7.063c-1.938,2.625 -1.938,2.625 -4.188,3.813c-2.75,-0.188 -2.75,-0.188 -4.312,-1.223l-1.688,-1.34c-2.647,-2.03 -4.768,-3.19 -8.062,-3.812c-2.669,-0.131 -4.506,0.122 -7.028,1.019c-8.167,4.381 -14.482,11.396 -20.66,18.168l-1.602,1.72a167,167 0 0 0 -4.398,5.03l-2.562,2.984l-1.438,3.266c0.699,3.411 1.591,5.853 3,9l1.57,3.674c1.91,4.442 3.887,8.853 5.868,13.264l2.173,4.857q2.695,6.013 5.404,12.02q1.344,2.982 2.682,5.967c17.395,41.943 17.395,41.943 45.866,76.28c3.968,2.238 6.925,2.982 11.437,2.938c2.386,-0.203 4.641,-0.558 7,-1l1,4c-10.117,5.536 -20.44,8 -32,8c-7.743,-0.709 -14.704,-3.266 -21.246,-7.43c-10.477,-7.59 -17.498,-18.437 -23.754,-29.57l-1.26,-2.229c-12.07,-21.627 -21.737,-44.717 -30.74,-67.771l-2,2c-0.312,2.742 -0.312,2.742 -0.271,5.991l-0.031,3.814l-0.003,2.045q-0.008,3.173 -0.04,6.345c-0.056,6.014 -0.087,12.029 -0.111,18.043c-0.016,3.679 -0.047,7.357 -0.085,11.036a510,510 0 0 0 -0.018,4.194c-0.001,12.313 -0.001,12.313 -1.854,16.83c-1.587,2.702 -1.587,2.702 -3.419,4.554c-4.429,2.345 -9.212,2.893 -14.168,3.148c-3.338,-0.468 -6.073,-1.326 -9,-3c-2.285,-2.228 -3.622,-3.81 -4.585,-6.842c-0.473,-2.461 -0.546,-4.743 -0.553,-7.25c-0.005,-1.028 -0.01,-2.056 -0.017,-3.115l-0.003,-3.399l-0.015,-3.593q-0.02,-4.871 -0.032,-9.743c-0.01,-3.4 -0.029,-6.799 -0.047,-10.198c-0.062,-11.576 -0.116,-23.153 -0.15,-34.73q-0.027,-9.594 -0.087,-19.188q-0.034,-5.077 -0.04,-10.153c-0.004,-3.771 -0.027,-7.542 -0.054,-11.313l0.009,-3.405l-0.034,-3.106l-0.01,-2.702c-0.223,-2.315 -0.223,-2.315 -1.66,-4.073l-1.722,-1.19c-7.656,0 -14.27,2.434 -21,6c-3.886,2.727 -6.996,5.776 -10,9.438c-1.46,3.743 -1.324,6.545 -1,10.562l2,3c3.374,0.5 3.374,0.5 7,0a264,264 0 0 0 5,-3c3.063,-0.437 3.063,-0.437 6,0c2.313,1.438 2.313,1.438 4,4c0.84,3.035 1.137,5.855 1,9c-1.257,3.701 -2.547,5.571 -5.375,8.25c-3.25,2.167 -5.768,3.55 -9.695,3.973c-3.984,0.155 -6.856,-0.198 -10.68,-1.473c-3.95,-2.127 -7.013,-3.777 -9.445,-7.656c-2.417,-4.8 -3.442,-9.117 -3.184,-14.489c0.989,-6.8 3.484,-12.752 7.442,-18.355c6.235,-7.429 14.956,-11.737 23.875,-15.184c9.18,-3.196 17.685,-4.347 27.375,-4.441l2.821,-0.042c5.967,0.04 10.442,0.888 15.866,3.417c2.438,2.375 2.438,2.375 4,5c1.32,4.733 1.223,9.58 1.316,14.457l0.063,2.736q0.097,4.31 0.183,8.62l0.131,5.857q0.16,7.165 0.307,14.33l1.159,-1.616c19.246,-26.835 19.246,-26.835 28.833,-37.165c2.06,-2.222 2.06,-2.222 3.977,-4.75c5.79,-7.037 13.651,-12.044 22.031,-15.469c3.76,-1.264 7.495,-1.203 11.438,-1.25" fill="#ffffff"/>
  <path stroke="null" d="m517.95817,130.56742c4.077,1.893 7.703,4.383 11.297,7.066l1.434,-1.207c4.896,-3.923 9.35,-6.641 15.566,-7.793c7.11,-0.715 13.337,-0.495 19.902,2.441c6.024,4.476 9.58,10.63 12.723,17.309l1.256,2.648c8.407,18.435 14.277,38.228 20.119,57.602c2.002,-2.512 3.458,-4.727 4.5,-7.766l0.746,-2.17c5.649,-17.325 9.485,-35.452 6.074,-53.7a108,108 0 0 0 -1.652,-5.29c-0.878,-2.727 -0.898,-5.234 -0.668,-8.074c3.306,-1.935 5.798,-2.976 9.625,-3.437c3.375,0.437 3.375,0.437 5.555,2.087c1.82,2.35 1.82,2.35 2.322,5.15l-0.006,3.232l0.01,3.616c-0.023,1.272 -0.046,2.543 -0.068,3.853l-0.043,3.956c-0.506,26.816 -6.972,53.142 -20.707,76.356c-9.508,15.443 -21.515,30.379 -37.395,39.504c-9.474,4.844 -19.449,8.695 -30.211,8.68c-4.141,-0.263 -7.61,-0.824 -11.52,-2.246c-2.94,-2.008 -4.716,-3.697 -6.562,-6.75c-0.5,-2.937 -0.5,-2.937 0,-6c1.75,-3.312 1.75,-3.312 4,-6l1.938,-1.187l2.062,0.186c2.974,2.517 5.04,5.06 7.188,8.313l2.812,2.687c4.385,1.059 8.412,0.387 12.742,-0.668c6.96,-2.257 12.54,-5.831 18.258,-10.332l2.367,-1.832c2.987,-2.41 2.987,-2.41 5.633,-5.168c0.877,-2.163 0.877,-2.163 1,-5c-0.558,-2.985 -1.472,-5.837 -2.395,-8.727l-0.796,-2.582c-0.86,-2.776 -1.74,-5.546 -2.621,-8.316l-1.806,-5.743c-5.88,-18.582 -12.258,-36.911 -20.132,-54.757l-1.032,-2.351c-2.874,-6.286 -6.299,-12.605 -11.218,-17.524c-2.688,-0.27 -5.291,-0.087 -8,0l0.688,3.5c0.35,3.068 0.326,5.534 -0.563,8.5c-1.862,4.152 -4.474,6.905 -7.95,9.8c-5.773,3.999 -11.989,7.207 -18.183,10.5c-5.382,2.872 -10.524,6.045 -15.656,9.337l-2.336,1.363l-2,0c-0.553,4.862 0.29,8.367 2.063,12.938c2.502,5.592 5.24,10.082 9.937,14.062c4.177,3.013 8.073,4.711 13.18,5.477c5.736,0.256 10.243,-0.295 15.445,-2.79c2.345,-1.297 4.145,-2.45 6.012,-4.375l1.363,-1.312c2.188,0.313 2.188,0.313 4,1c-0.4,2.571 -1.005,4.006 -2.574,6.113c-6.886,7.166 -14.583,11.399 -23.832,14.762c-7.723,2.075 -16.322,2.005 -24.102,0.402c-7.835,-2.245 -14.145,-5.242 -20.18,-10.715l-2.312,-2.562l-2.5,-2.625c-4.704,-5.773 -7.858,-13.442 -9.219,-20.742c-1.26,-11.803 -0.456,-22.534 3.903,-33.653c3.784,-8.351 8.998,-15.716 16.46,-21.185c13.649,-9.122 30.03,-13.429 46.06,-7.861m-28.453,11.129c-4.257,5.557 -5.764,11.062 -6.91,17.87c-0.593,5.352 -0.494,10.692 -0.34,16.067c4.899,-1.73 9.227,-4.316 13.688,-6.937l2.337,-1.342l2.237,-1.31l2.03,-1.184c2.002,-1.286 2.002,-1.286 3.708,-4.227c0.673,-4.923 0.346,-9.729 -1.25,-14.437c-1.51,-3.463 -1.51,-3.463 -3.5,-5.563c-2.373,-1.176 -2.373,-1.176 -5.687,-1.5c-3.65,0.22 -3.65,0.22 -6.313,2.563m288.718,-10.442c7.522,3.422 13.35,8.088 18.468,14.567c5.08,7.474 7.344,15.929 8.563,24.812c0.84,12.417 -0.579,23.522 -5.25,35.098c-3.555,7.18 -8.557,12.85 -14.75,17.902c-6.476,4.112 -13.302,6.688 -20.98,7.336c-8.913,0.193 -16.89,-0.27 -25.02,-4.336c-7.023,-4.177 -12.878,-8.88 -17,-16c-7,-13.355 -7.759,-25.352 -7.195,-40.202c0.6,-8.593 3.771,-16.252 8.441,-23.45c5.078,-6.797 10.574,-11.964 18.375,-15.418c11.57,-4.522 24.642,-4.467 36.348,-0.309m-21.969,8.317c-3.295,2.265 -4.968,4.215 -6.89,7.677c-3.36,7.216 -3.512,15.616 -3.798,23.447l-0.118,3.027c-0.93,19.568 -0.93,19.568 3.908,38.184c1.688,2.869 3.535,5.328 5.773,7.79c2.262,1.168 2.262,1.168 5.563,0.937c3.632,-0.78 3.632,-0.78 6.312,-3.125c4.02,-5.137 5.373,-9.642 6.438,-16c0.93,-7.823 1.025,-15.627 1.062,-23.5l0.028,-3.68c-0.032,-9.436 -0.108,-19.614 -4.153,-28.32c-1.898,-3.291 -1.898,-3.291 -4.062,-5.312c-3.778,-1.946 -5.938,-2.415 -10.063,-1.125m105.688,-9.25c3.39,1.304 5.498,2.46 8.375,4.75l1.937,2.562l1.813,2.25c1.44,3.334 1.736,5.981 1.597,9.594c-0.41,2.156 -0.41,2.156 -2.472,5.156c-2.938,2 -2.938,2 -6.438,3c-3.5,0 -3.5,0 -6.375,-1.375c-2.125,-1.625 -2.125,-1.625 -3.125,-2.625c-0.312,-2.812 -0.312,-2.812 0,-6c1.875,-2.375 1.875,-2.375 4,-4l2,0c-1.301,-2.502 -1.301,-2.502 -3,-5c-3.576,-1.192 -6.24,-1.26 -10,-1c-2.855,1.245 -2.855,1.245 -5,3c-1.282,2.564 -1.448,4.891 -1.405,7.735c0.789,4.413 3.692,7.796 6.405,11.265c2.493,2.657 5.152,5.082 7.875,7.5q2.135,1.955 4.262,3.918l2.032,1.873c6.535,6.102 11.587,12.299 14.831,20.709c1.277,5.386 1.623,10.276 0.387,15.68c-1.576,5.012 -3.474,8.898 -7.074,12.758c-5.029,4.586 -10.721,7.085 -17.313,8.562c-9.603,0.672 -18.466,0.937 -27.309,-3.367c-5.807,-3.523 -10.961,-7.768 -15.691,-12.633l2,-4c3.412,0.612 5.396,1.905 8.125,4c3.32,2.262 5.943,3.527 9.938,4.063c4.117,0.173 7.544,-0.363 11.308,-2.06c1.834,-1.027 1.834,-1.027 3.629,-3.19c1.026,-2.885 1.67,-5.438 1.531,-8.516c-1.184,-5.122 -4.332,-9.22 -7.531,-13.297c-2.368,-2.501 -4.824,-4.884 -7.305,-7.273c-7.212,-7.297 -14.198,-15.289 -17.18,-25.27c-1.088,-5.185 -0.979,-9.557 0.673,-14.644c1.571,-3.772 3.693,-6.14 6.812,-8.813l2.188,-2.125c10.12,-6.747 24.155,-6.628 35.5,-3.187m-195.313,-0.563c3.147,2.248 5.667,4.542 7.625,7.875c0.93,2.675 1.47,5.204 2,8l1.941,-2.23c4.654,-5.25 9.028,-10.078 15.059,-13.77c3.712,-1.237 7.139,-1.29 11,-1c2.313,0.625 2.313,0.625 4,2c1.814,2.656 2.868,4.9 3.254,8.113c0.136,5.24 -0.57,9.925 -2.254,14.887l-3,1l-2.187,-2.937c-1.69,-1.987 -2.676,-2.998 -5.063,-4.125c-5.257,0.119 -9.75,1.892 -14.262,4.53c-3.059,2.01 -5.896,3.94 -8.488,6.532c-0.298,2.839 -0.298,2.839 -0.24,6.206l-0.01,3.955l0.006,2.12c0.006,2.19 -0.003,4.38 -0.017,6.57c-0.037,6.228 -0.056,12.456 -0.044,18.683c0.005,3.81 -0.013,7.617 -0.046,11.425q-0.012,2.175 0.004,4.35c0.014,2.033 -0.005,4.065 -0.025,6.097l-0.002,3.5c-0.626,3.094 -0.626,3.094 -2.978,5.944c-2.648,2.15 -2.648,2.15 -5.648,3.15c-5.716,0.397 -11.149,0.606 -16.625,-1.187c-2.78,-2.122 -3.864,-3.655 -5.375,-6.813a69,69 0 0 1 -0.417,-7.88l-0.026,-2.357c-0.025,-2.56 -0.029,-5.12 -0.034,-7.681q-0.021,-2.672 -0.047,-5.345c-0.042,-4.683 -0.067,-9.366 -0.087,-14.049a6520,6520 0 0 0 -0.159,-22.518q-0.026,-3.938 -0.041,-7.874l-0.031,-4.805l-0.003,-2.22c0.027,-3.761 0.027,-3.761 -1.155,-7.271l-10,0l1,-4c4.555,-3.711 10.074,-6.615 15.863,-7.754c5.707,-0.657 11.017,-0.953 16.512,0.879" fill="#ffffff"/>
  <path stroke="null" d="m176.02817,22.86342c5.425,3.039 9.87,6.495 13.227,11.77c2.878,5.172 4.27,10.016 4.5,15.938c-0.24,6.202 -1.688,11.533 -4.5,17.062c-3.097,4.848 -7.002,7.982 -11.875,10.957c-6.233,3.059 -11.79,3.474 -18.652,3.352c-4.862,-0.432 -8.404,-1.646 -12.473,-4.309c-5.692,-4.088 -9.904,-8.695 -13,-15c-2.052,-5.374 -2.576,-10.319 -2,-16c0.965,-5.57 2.78,-10.136 6.063,-14.75c3.946,-4.684 8.358,-7.758 13.937,-10.25c8.293,-2.986 16.738,-2.334 24.773,1.23" fill="#ffffff"/>
  <path stroke="null" d="m656.25517,88.63342q4.406,-0.08 8.813,-0.125l2.525,-0.05l2.432,-0.02l2.237,-0.032c1.993,0.227 1.993,0.227 4.993,2.227c1.283,3.85 1.066,6.947 1,11l-4,0l-1,-9l-4,-1l-1,11l-3,0l-1,-10l-4,-1l-1,11l-3,0l0,-14zm-54,0q4.406,-0.118 8.813,-0.187l2.525,-0.077l2.432,-0.029l2.237,-0.048c1.993,0.341 1.993,0.341 3.74,1.69l1.253,1.651c0.293,2.7 0.293,2.7 0.188,5.688l-0.083,3.011l-0.105,2.301l-3,0l-1,-10l-4,0l-1,10l-3,0l-1,-11l-4,1l-1,10l-3,0l0,-14zm153,0l3,0l1,9l4,1l1,-9l4,0c0.082,1.895 0.14,3.791 0.188,5.688l0.105,3.199c-0.293,3.113 -0.293,3.113 -1.742,5.945c-1.551,2.168 -1.551,2.168 -2.551,3.168q-3.5,0.062 -7,0l0,-3l6,-1l-2.875,-0.812l-3.125,-1.188c-2,-3 -2,-3 -2.195,-5.48l0.07,-2.707l0.055,-2.731l0.07,-2.082zm92,0c6.559,-0.431 6.559,-0.431 10,0c2.625,2.188 2.625,2.188 4,5c0.5,2.563 0.5,2.563 0,5c-1.625,2.313 -1.625,2.313 -4,4c-3.25,0.25 -3.25,0.25 -6,0l-2,6l-2,-1l0,-19zm5,3l-2,2c0.32,2.603 0.32,2.603 1,5c2.397,0.68 2.397,0.68 5,1l2,-2c-0.32,-2.603 -0.32,-2.603 -1,-5c-2.397,-0.68 -2.397,-0.68 -5,-1m-217.508,-3.242c2.504,-0.007 5.008,0.11 7.508,0.242l0,13c-3.687,0.922 -6.25,1.39 -10,1c-2.375,-1.625 -2.375,-1.625 -4,-4c-0.5,-3 -0.5,-3 0,-6c1.747,-3.018 3.012,-3.904 6.492,-4.242m-1.492,3.242l-2,2c0.32,2.603 0.32,2.603 1,5l5,1c1.198,-2.329 1.198,-2.329 2,-5l-2,-3l-4,0zm-120,-3c2.445,-0.426 2.445,-0.426 5.125,-0.312l2.695,0.074l2.18,0.238l1,1c0.072,2.02 0.084,4.042 0.063,6.063l-0.028,3.347l-0.035,2.59c-3.782,1.022 -7.066,1.358 -11,1c-1.937,-1.625 -1.937,-1.625 -3,-4c-0.375,-3 -0.375,-3 0,-6c1.203,-2.168 1.203,-2.168 3,-4m1,3l-1,1c-0.167,3 -0.167,3 0,6l1,1c2.5,0.167 2.5,0.167 5,0l1,-1c0.167,-3 0.167,-3 0,-6l-1,-1c-2.5,-0.167 -2.5,-0.167 -5,0m309,-3.5c3,0.5 3,0.5 5.375,2.25l1.625,2.25l0,4l-10,1l1,1q3.5,0.062 7,0l0,3l-1,1c-3.312,0.313 -3.312,0.313 -7,0c-2.437,-1.625 -2.437,-1.625 -4,-4c-0.5,-3 -0.5,-3 0,-6c2.12,-3.098 3.285,-3.88 7,-4.5m-3,3.5l0,2l7,0l-1,-2l-6,0zm-84,-3.5c3,0.5 3,0.5 5.375,2.25l1.625,2.25l0,4l-10,1l1,1q3.5,0.062 7,0l0,3l-1,1c-3.312,0.313 -3.312,0.313 -7,0c-2.437,-1.625 -2.437,-1.625 -4,-4c-0.5,-3 -0.5,-3 0,-6c2.12,-3.098 3.285,-3.88 7,-4.5m-3,3.5l0,2l7,0l-1,-2l-6,0zm-43,-3.5c3,0.5 3,0.5 5.375,2.25l1.625,2.25l0,4l-10,1l1,1q3.5,0.062 7,0l0,3l-1,1c-3.312,0.313 -3.312,0.313 -7,0c-2.437,-1.625 -2.437,-1.625 -4,-4c-0.5,-3 -0.5,-3 0,-6c2.12,-3.098 3.285,-3.88 7,-4.5m-3,3.5l0,2l7,0l-1,-2l-6,0zm-109.062,-3.25c3.062,0.25 3.062,0.25 4.875,1.438c1.187,1.812 1.187,1.812 2.062,4.187c0.125,2.625 0.125,2.625 -1.25,5.375c-1.625,2.25 -1.625,2.25 -2.625,3.25c-2.812,0.25 -2.812,0.25 -6,0c-2.312,-1.187 -2.312,-1.187 -4,-3c-0.937,-2.375 -0.937,-2.375 -1,-5c1.313,-2.75 1.313,-2.75 3,-5c2,-1 2,-1 4.938,-1.25m-1.938,3.25l-2,1l0,6q2.988,0.57 6,1l1,-1c0.04,-2 0.043,-4 0,-6a76,76 0 0 0 -5,-1m-94,-9l15,0l0,3l-5,0l0,16l-4,0l0,-16l-5,0l-1,-3zm389.938,5.563c3.062,0.437 3.062,0.437 5.437,2.062c1.625,2.375 1.625,2.375 2.125,5.375c-0.5,3 -0.5,3 -2.125,5.375c-2.375,1.625 -2.375,1.625 -5.375,2.188l-3,-0.563c-2.437,-2.125 -2.437,-2.125 -4,-5c0.063,-3.125 0.063,-3.125 1,-6c1.744,-2.753 2.683,-2.953 5.938,-3.437m-1.938,3.437l-1,1c-0.04,2 -0.043,4 0,6c2.397,0.68 2.397,0.68 5,1l2,-2c-0.32,-2.603 -0.32,-2.603 -1,-5a88,88 0 0 0 -5,-1m-322,-3c3,-0.187 3,-0.187 6,0l2,1l0,3l-6,0l2.938,1.188l3.062,1.812c0.875,2.688 0.875,2.688 1,5l-3,2c-3.187,0.125 -3.187,0.125 -6,0l-2,-4l7,0l-2.937,-1.187l-3.063,-1.813c-1,-2.562 -1,-2.562 -1,-5l2,-2zm-19,0l4.313,-0.187l2.425,-0.106c2.262,0.293 2.262,0.293 4.043,1.45c1.219,1.843 1.219,1.843 1.512,4.541l-0.106,2.988l-0.082,3.012l-0.105,2.302l-3,0l-1,-10l-4,-1l-1,11l-3,0l0,-14zm173,0c6.738,-0.39 6.738,-0.39 9,0c1.781,1.688 1.781,1.688 3,4c0.293,2.578 0.293,2.578 0.188,5.25l-0.083,2.703l-0.105,2.047l-3,0l-1,-11l-4,1l-1,10l-3,0l0,-14zm97,0l3,0l1,10l4,1l1,-11l3,1c0.459,7.955 0.459,7.955 -1.125,11.563c-1.875,1.437 -1.875,1.437 -4.875,1.875c-3,-0.438 -3,-0.438 -4.676,-1.61c-1.324,-1.828 -1.324,-1.828 -1.617,-4.527l0.106,-2.988l0.082,-3.012l0.105,-2.301zm-7,0l2,1l0,3l-8,0l-1,6l9,0l0,3c-2,1 -2,1 -4.875,1.25c-3.125,-0.25 -3.125,-0.25 -5.437,-1.437c-1.688,-1.813 -1.688,-1.813 -2.625,-4.188c-0.063,-2.625 -0.063,-2.625 1.25,-5.375c2.831,-3.776 5.159,-3.439 9.687,-3.25m-71,-6l3,1l0,5l2,0l-1,3a119,119 0 0 0 -0.062,5.688l0.027,3.011l0.035,2.301l-4,-1c-0.2,-1.03 -0.2,-1.03 -0.402,-2.082l-0.535,-2.73l-0.528,-2.708c-0.512,-2.594 -0.512,-2.594 -1.535,-5.48l2,0l-0.062,-2.437l0.062,-2.563l1,-1zm-157,0l5,1l-1,2l-2,0l0,2l2,0l0,3l-2,0l0,12l-3,0l0,-12l-3,-1l1,-2l2,0l1,-5zm-65,6l9,0l0,3l-1.937,0.5l-2.063,1.5c-0.688,2.697 -0.82,5.202 -1,8l-4,0l0,-13zm335,0l9,0l-1,3l-2,1.188l-2,1.812c-0.664,2.698 -0.817,5.208 -1,8l-3,0l0,-14zm-245,0l9,0l-1,3l-2,1.188l-2,1.812c-0.664,2.698 -0.817,5.208 -1,8l-3,0l0,-14z" fill="#ffffff"/>
 </g>
</svg>